<svg xmlns="http://www.w3.org/2000/svg" version="1.1" xmlns:xlink="http://www.w3.org/1999/xlink" xmlns:svgjs="http://svgjs.dev/svgjs" width="1440" height="560" preserveAspectRatio="none" viewBox="0 0 1440 560">
    <g mask="url(&quot;#SvgjsMask1006&quot;)" fill="none">
        <rect width="1440" height="560" x="0" y="0" fill="url(&quot;#SvgjsLinearGradient1007&quot;)"></rect>
        <path d="M-74.31 659.69L-74.31 659.69" stroke="#132e65" stroke-width="1.5"></path>
        <path d="M-74.31 659.69L86.25 649.07" stroke="#132e65" stroke-width="1.5"></path>
        <path d="M-74.31 659.69L39.41 541.81" stroke="#132e65" stroke-width="1.5"></path>
        <path d="M-74.31 659.69L216.76 646.24" stroke="#132e65" stroke-width="1.5"></path>
        <path d="M-74.31 659.69L200.85 534.02" stroke="#132e65" stroke-width="1.5"></path>
        <path d="M-74.31 659.69L92.89 355.92" stroke="#132e65" stroke-width="1.5"></path>
        <path d="M-74.31 659.69L344 704.68" stroke="#132e65" stroke-width="1.5"></path>
        <path d="M92.89 355.92L92.89 355.92" stroke="#132e65" stroke-width="1.5"></path>
        <path d="M92.89 355.92L255.89 374.08" stroke="#132e65" stroke-width="1.5"></path>
        <path d="M92.89 355.92L39.41 541.81" stroke="#132e65" stroke-width="1.5"></path>
        <path d="M92.89 355.92L200.85 534.02" stroke="#132e65" stroke-width="1.5"></path>
        <path d="M92.89 355.92L86.25 649.07" stroke="#132e65" stroke-width="1.5"></path>
        <path d="M92.89 355.92L408.28 355.79" stroke="#132e65" stroke-width="1.5"></path>
        <path d="M92.89 355.92L216.76 646.24" stroke="#132e65" stroke-width="1.5"></path>
        <path d="M39.41 541.81L39.41 541.81" stroke="#132e65" stroke-width="1.5"></path>
        <path d="M39.41 541.81L86.25 649.07" stroke="#132e65" stroke-width="1.5"></path>
        <path d="M39.41 541.81L200.85 534.02" stroke="#132e65" stroke-width="1.5"></path>
        <path d="M86.25 649.07L86.25 649.07" stroke="#132e65" stroke-width="1.5"></path>
        <path d="M86.25 649.07L216.76 646.24" stroke="#132e65" stroke-width="1.5"></path>
        <path d="M86.25 649.07L200.85 534.02" stroke="#132e65" stroke-width="1.5"></path>
        <path d="M86.25 649.07L344 704.68" stroke="#132e65" stroke-width="1.5"></path>
        <path d="M255.89 374.08L255.89 374.08" stroke="#132e65" stroke-width="1.5"></path>
        <path d="M255.89 374.08L408.28 355.79" stroke="#132e65" stroke-width="1.5"></path>
        <path d="M200.85 534.02L200.85 534.02" stroke="#132e65" stroke-width="1.5"></path>
        <path d="M200.85 534.02L216.76 646.24" stroke="#132e65" stroke-width="1.5"></path>
        <path d="M200.85 534.02L255.89 374.08" stroke="#132e65" stroke-width="1.5"></path>
        <path d="M200.85 534.02L344 704.68" stroke="#132e65" stroke-width="1.5"></path>
        <path d="M216.76 646.24L216.76 646.24" stroke="#132e65" stroke-width="1.5"></path>
        <path d="M216.76 646.24L344 704.68" stroke="#132e65" stroke-width="1.5"></path>
        <path d="M408.28 355.79L408.28 355.79" stroke="#132e65" stroke-width="1.5"></path>
        <path d="M408.28 355.79L504.8 371.87" stroke="#132e65" stroke-width="1.5"></path>
        <path d="M344 704.68L344 704.68" stroke="#132e65" stroke-width="1.5"></path>
        <path d="M344 704.68L557.04 644.95" stroke="#132e65" stroke-width="1.5"></path>
        <path d="M504.8 371.87L504.8 371.87" stroke="#132e65" stroke-width="1.5"></path>
        <path d="M504.8 371.87L536.94 529.43" stroke="#132e65" stroke-width="1.5"></path>
        <path d="M504.8 371.87L661.91 251.1" stroke="#132e65" stroke-width="1.5"></path>
        <path d="M504.8 371.87L666.86 514.07" stroke="#132e65" stroke-width="1.5"></path>
        <path d="M504.8 371.87L255.89 374.08" stroke="#132e65" stroke-width="1.5"></path>
        <path d="M536.94 529.43L536.94 529.43" stroke="#132e65" stroke-width="1.5"></path>
        <path d="M536.94 529.43L557.04 644.95" stroke="#132e65" stroke-width="1.5"></path>
        <path d="M536.94 529.43L666.86 514.07" stroke="#132e65" stroke-width="1.5"></path>
        <path d="M557.04 644.95L557.04 644.95" stroke="#132e65" stroke-width="1.5"></path>
        <path d="M557.04 644.95L666.86 514.07" stroke="#132e65" stroke-width="1.5"></path>
        <path d="M661.91 251.1L661.91 251.1" stroke="#132e65" stroke-width="1.5"></path>
        <path d="M661.91 251.1L837.19 223.23" stroke="#132e65" stroke-width="1.5"></path>
        <path d="M661.91 251.1L846.56 339.23" stroke="#132e65" stroke-width="1.5"></path>
        <path d="M661.91 251.1L858.34 97.83" stroke="#132e65" stroke-width="1.5"></path>
        <path d="M661.91 251.1L666.86 514.07" stroke="#132e65" stroke-width="1.5"></path>
        <path d="M661.91 251.1L408.28 355.79" stroke="#132e65" stroke-width="1.5"></path>
        <path d="M666.86 514.07L666.86 514.07" stroke="#132e65" stroke-width="1.5"></path>
        <path d="M666.86 514.07L834.36 488.08" stroke="#132e65" stroke-width="1.5"></path>
        <path d="M858.34 97.83L858.34 97.83" stroke="#132e65" stroke-width="1.5"></path>
        <path d="M858.34 97.83L944.47 61.01" stroke="#132e65" stroke-width="1.5"></path>
        <path d="M858.34 97.83L837.19 223.23" stroke="#132e65" stroke-width="1.5"></path>
        <path d="M858.34 97.83L991.87 239.7" stroke="#132e65" stroke-width="1.5"></path>
        <path d="M858.34 97.83L989.75 -101.11" stroke="#132e65" stroke-width="1.5"></path>
        <path d="M837.19 223.23L837.19 223.23" stroke="#132e65" stroke-width="1.5"></path>
        <path d="M837.19 223.23L846.56 339.23" stroke="#132e65" stroke-width="1.5"></path>
        <path d="M846.56 339.23L846.56 339.23" stroke="#132e65" stroke-width="1.5"></path>
        <path d="M846.56 339.23L980.94 386.41" stroke="#132e65" stroke-width="1.5"></path>
        <path d="M846.56 339.23L834.36 488.08" stroke="#132e65" stroke-width="1.5"></path>
        <path d="M846.56 339.23L991.87 239.7" stroke="#132e65" stroke-width="1.5"></path>
        <path d="M846.56 339.23L940.59 506.34" stroke="#132e65" stroke-width="1.5"></path>
        <path d="M834.36 488.08L834.36 488.08" stroke="#132e65" stroke-width="1.5"></path>
        <path d="M834.36 488.08L940.59 506.34" stroke="#132e65" stroke-width="1.5"></path>
        <path d="M834.36 488.08L980.94 386.41" stroke="#132e65" stroke-width="1.5"></path>
        <path d="M989.75 -101.11L989.75 -101.11" stroke="#132e65" stroke-width="1.5"></path>
        <path d="M989.75 -101.11L944.47 61.01" stroke="#132e65" stroke-width="1.5"></path>
        <path d="M989.75 -101.11L1150.06 -47.99" stroke="#132e65" stroke-width="1.5"></path>
        <path d="M944.47 61.01L944.47 61.01" stroke="#132e65" stroke-width="1.5"></path>
        <path d="M991.87 239.7L991.87 239.7" stroke="#132e65" stroke-width="1.5"></path>
        <path d="M991.87 239.7L980.94 386.41" stroke="#132e65" stroke-width="1.5"></path>
        <path d="M991.87 239.7L1144.1 261.76" stroke="#132e65" stroke-width="1.5"></path>
        <path d="M991.87 239.7L837.19 223.23" stroke="#132e65" stroke-width="1.5"></path>
        <path d="M980.94 386.41L980.94 386.41" stroke="#132e65" stroke-width="1.5"></path>
        <path d="M980.94 386.41L940.59 506.34" stroke="#132e65" stroke-width="1.5"></path>
        <path d="M980.94 386.41L1121.88 370.56" stroke="#132e65" stroke-width="1.5"></path>
        <path d="M940.59 506.34L940.59 506.34" stroke="#132e65" stroke-width="1.5"></path>
        <path d="M940.59 506.34L960.56 655.66" stroke="#132e65" stroke-width="1.5"></path>
        <path d="M940.59 506.34L1136.62 556.26" stroke="#132e65" stroke-width="1.5"></path>
        <path d="M940.59 506.34L1121.88 370.56" stroke="#132e65" stroke-width="1.5"></path>
        <path d="M960.56 655.66L960.56 655.66" stroke="#132e65" stroke-width="1.5"></path>
        <path d="M960.56 655.66L1136.62 556.26" stroke="#132e65" stroke-width="1.5"></path>
        <path d="M1150.06 -47.99L1150.06 -47.99" stroke="#132e65" stroke-width="1.5"></path>
        <path d="M1150.06 -47.99L1267.92 -77.59" stroke="#132e65" stroke-width="1.5"></path>
        <path d="M1150.06 -47.99L1153.84 91.53" stroke="#132e65" stroke-width="1.5"></path>
        <path d="M1150.06 -47.99L1290.37 101.77" stroke="#132e65" stroke-width="1.5"></path>
        <path d="M1153.84 91.53L1153.84 91.53" stroke="#132e65" stroke-width="1.5"></path>
        <path d="M1153.84 91.53L1290.37 101.77" stroke="#132e65" stroke-width="1.5"></path>
        <path d="M1153.84 91.53L1144.1 261.76" stroke="#132e65" stroke-width="1.5"></path>
        <path d="M1153.84 91.53L1275.31 233.45" stroke="#132e65" stroke-width="1.5"></path>
        <path d="M1153.84 91.53L1267.92 -77.59" stroke="#132e65" stroke-width="1.5"></path>
        <path d="M1144.1 261.76L1144.1 261.76" stroke="#132e65" stroke-width="1.5"></path>
        <path d="M1144.1 261.76L1121.88 370.56" stroke="#132e65" stroke-width="1.5"></path>
        <path d="M1144.1 261.76L1275.31 233.45" stroke="#132e65" stroke-width="1.5"></path>
        <path d="M1121.88 370.56L1121.88 370.56" stroke="#132e65" stroke-width="1.5"></path>
        <path d="M1121.88 370.56L1264.37 409.92" stroke="#132e65" stroke-width="1.5"></path>
        <path d="M1121.88 370.56L991.87 239.7" stroke="#132e65" stroke-width="1.5"></path>
        <path d="M1121.88 370.56L1136.62 556.26" stroke="#132e65" stroke-width="1.5"></path>
        <path d="M1136.62 556.26L1136.62 556.26" stroke="#132e65" stroke-width="1.5"></path>
        <path d="M1136.62 556.26L1252.37 509.17" stroke="#132e65" stroke-width="1.5"></path>
        <path d="M1136.62 556.26L1257.42 703.82" stroke="#132e65" stroke-width="1.5"></path>
        <path d="M1136.62 556.26L1264.37 409.92" stroke="#132e65" stroke-width="1.5"></path>
        <path d="M1267.92 -77.59L1267.92 -77.59" stroke="#132e65" stroke-width="1.5"></path>
        <path d="M1267.92 -77.59L1388.8 -86.96" stroke="#132e65" stroke-width="1.5"></path>
        <path d="M1267.92 -77.59L1290.37 101.77" stroke="#132e65" stroke-width="1.5"></path>
        <path d="M1290.37 101.77L1290.37 101.77" stroke="#132e65" stroke-width="1.5"></path>
        <path d="M1290.37 101.77L1275.31 233.45" stroke="#132e65" stroke-width="1.5"></path>
        <path d="M1290.37 101.77L1444.33 100.46" stroke="#132e65" stroke-width="1.5"></path>
        <path d="M1290.37 101.77L1398.45 252.82" stroke="#132e65" stroke-width="1.5"></path>
        <path d="M1275.31 233.45L1275.31 233.45" stroke="#132e65" stroke-width="1.5"></path>
        <path d="M1275.31 233.45L1398.45 252.82" stroke="#132e65" stroke-width="1.5"></path>
        <path d="M1264.37 409.92L1264.37 409.92" stroke="#132e65" stroke-width="1.5"></path>
        <path d="M1264.37 409.92L1252.37 509.17" stroke="#132e65" stroke-width="1.5"></path>
        <path d="M1264.37 409.92L1413.42 384.22" stroke="#132e65" stroke-width="1.5"></path>
        <path d="M1252.37 509.17L1252.37 509.17" stroke="#132e65" stroke-width="1.5"></path>
        <path d="M1252.37 509.17L1433.81 547.9" stroke="#132e65" stroke-width="1.5"></path>
        <path d="M1257.42 703.82L1257.42 703.82" stroke="#132e65" stroke-width="1.5"></path>
        <path d="M1257.42 703.82L1443.71 674.38" stroke="#132e65" stroke-width="1.5"></path>
        <path d="M1388.8 -86.96L1388.8 -86.96" stroke="#132e65" stroke-width="1.5"></path>
        <path d="M1388.8 -86.96L1541.5 -63.69" stroke="#132e65" stroke-width="1.5"></path>
        <path d="M1388.8 -86.96L1444.33 100.46" stroke="#132e65" stroke-width="1.5"></path>
        <path d="M1444.33 100.46L1444.33 100.46" stroke="#132e65" stroke-width="1.5"></path>
        <path d="M1444.33 100.46L1557.62 105.96" stroke="#132e65" stroke-width="1.5"></path>
        <path d="M1444.33 100.46L1398.45 252.82" stroke="#132e65" stroke-width="1.5"></path>
        <path d="M1444.33 100.46L1541.5 -63.69" stroke="#132e65" stroke-width="1.5"></path>
        <path d="M1398.45 252.82L1398.45 252.82" stroke="#132e65" stroke-width="1.5"></path>
        <path d="M1398.45 252.82L1413.42 384.22" stroke="#132e65" stroke-width="1.5"></path>
        <path d="M1398.45 252.82L1575.97 245.55" stroke="#132e65" stroke-width="1.5"></path>
        <path d="M1398.45 252.82L1264.37 409.92" stroke="#132e65" stroke-width="1.5"></path>
        <path d="M1413.42 384.22L1413.42 384.22" stroke="#132e65" stroke-width="1.5"></path>
        <path d="M1413.42 384.22L1433.81 547.9" stroke="#132e65" stroke-width="1.5"></path>
        <path d="M1413.42 384.22L1593.34 399.45" stroke="#132e65" stroke-width="1.5"></path>
        <path d="M1413.42 384.22L1564.34 505.96" stroke="#132e65" stroke-width="1.5"></path>
        <path d="M1413.42 384.22L1252.37 509.17" stroke="#132e65" stroke-width="1.5"></path>
        <path d="M1433.81 547.9L1433.81 547.9" stroke="#132e65" stroke-width="1.5"></path>
        <path d="M1433.81 547.9L1443.71 674.38" stroke="#132e65" stroke-width="1.5"></path>
        <path d="M1433.81 547.9L1564.34 505.96" stroke="#132e65" stroke-width="1.5"></path>
        <path d="M1433.81 547.9L1564.57 647.53" stroke="#132e65" stroke-width="1.5"></path>
        <path d="M1443.71 674.38L1443.71 674.38" stroke="#132e65" stroke-width="1.5"></path>
        <path d="M1443.71 674.38L1564.57 647.53" stroke="#132e65" stroke-width="1.5"></path>
        <path d="M1541.5 -63.69L1541.5 -63.69" stroke="#132e65" stroke-width="1.5"></path>
        <path d="M1541.5 -63.69L1557.62 105.96" stroke="#132e65" stroke-width="1.5"></path>
        <path d="M1541.5 -63.69L1267.92 -77.59" stroke="#132e65" stroke-width="1.5"></path>
        <path d="M1541.5 -63.69L1290.37 101.77" stroke="#132e65" stroke-width="1.5"></path>
        <path d="M1541.5 -63.69L1575.97 245.55" stroke="#132e65" stroke-width="1.5"></path>
        <path d="M1557.62 105.96L1557.62 105.96" stroke="#132e65" stroke-width="1.5"></path>
        <path d="M1557.62 105.96L1575.97 245.55" stroke="#132e65" stroke-width="1.5"></path>
        <path d="M1557.62 105.96L1398.45 252.82" stroke="#132e65" stroke-width="1.5"></path>
        <path d="M1575.97 245.55L1575.97 245.55" stroke="#132e65" stroke-width="1.5"></path>
        <path d="M1575.97 245.55L1593.34 399.45" stroke="#132e65" stroke-width="1.5"></path>
        <path d="M1575.97 245.55L1444.33 100.46" stroke="#132e65" stroke-width="1.5"></path>
        <path d="M1575.97 245.55L1413.42 384.22" stroke="#132e65" stroke-width="1.5"></path>
        <path d="M1575.97 245.55L1564.34 505.96" stroke="#132e65" stroke-width="1.5"></path>
        <path d="M1593.34 399.45L1593.34 399.45" stroke="#132e65" stroke-width="1.5"></path>
        <path d="M1593.34 399.45L1564.34 505.96" stroke="#132e65" stroke-width="1.5"></path>
        <path d="M1593.34 399.45L1433.81 547.9" stroke="#132e65" stroke-width="1.5"></path>
        <path d="M1593.34 399.45L1398.45 252.82" stroke="#132e65" stroke-width="1.5"></path>
        <path d="M1593.34 399.45L1564.57 647.53" stroke="#132e65" stroke-width="1.5"></path>
        <path d="M1564.34 505.96L1564.34 505.96" stroke="#132e65" stroke-width="1.5"></path>
        <path d="M1564.34 505.96L1564.57 647.53" stroke="#132e65" stroke-width="1.5"></path>
        <path d="M1564.57 647.53L1564.57 647.53" stroke="#132e65" stroke-width="1.5"></path>
        <circle r="5" cx="-74.31" cy="659.69" fill="#132e65"></circle>
        <circle r="5" cx="92.89" cy="355.92" fill="#132e65"></circle>
        <circle r="5" cx="39.41" cy="541.81" fill="#132e65"></circle>
        <circle r="5" cx="86.25" cy="649.07" fill="#132e65"></circle>
        <circle r="5" cx="255.89" cy="374.08" fill="#132e65"></circle>
        <circle r="5" cx="200.85" cy="534.02" fill="#132e65"></circle>
        <circle r="5" cx="216.76" cy="646.24" fill="#132e65"></circle>
        <circle r="5" cx="408.28" cy="355.79" fill="#132e65"></circle>
        <circle r="5" cx="344" cy="704.68" fill="#132e65"></circle>
        <circle r="5" cx="504.8" cy="371.87" fill="#132e65"></circle>
        <circle r="5" cx="536.94" cy="529.43" fill="#132e65"></circle>
        <circle r="5" cx="557.04" cy="644.95" fill="#132e65"></circle>
        <circle r="5" cx="661.91" cy="251.1" fill="#132e65"></circle>
        <circle r="5" cx="666.86" cy="514.07" fill="#132e65"></circle>
        <circle r="5" cx="858.34" cy="97.83" fill="#132e65"></circle>
        <circle r="5" cx="837.19" cy="223.23" fill="#132e65"></circle>
        <circle r="5" cx="846.56" cy="339.23" fill="#132e65"></circle>
        <circle r="5" cx="834.36" cy="488.08" fill="#132e65"></circle>
        <circle r="5" cx="989.75" cy="-101.11" fill="#132e65"></circle>
        <circle r="5" cx="944.47" cy="61.01" fill="#132e65"></circle>
        <circle r="5" cx="991.87" cy="239.7" fill="#132e65"></circle>
        <circle r="5" cx="980.94" cy="386.41" fill="#132e65"></circle>
        <circle r="5" cx="940.59" cy="506.34" fill="#132e65"></circle>
        <circle r="5" cx="960.56" cy="655.66" fill="#132e65"></circle>
        <circle r="5" cx="1150.06" cy="-47.99" fill="#132e65"></circle>
        <circle r="5" cx="1153.84" cy="91.53" fill="#132e65"></circle>
        <circle r="5" cx="1144.1" cy="261.76" fill="#132e65"></circle>
        <circle r="5" cx="1121.88" cy="370.56" fill="#132e65"></circle>
        <circle r="5" cx="1136.62" cy="556.26" fill="#132e65"></circle>
        <circle r="5" cx="1267.92" cy="-77.59" fill="#132e65"></circle>
        <circle r="5" cx="1290.37" cy="101.77" fill="#132e65"></circle>
        <circle r="5" cx="1275.31" cy="233.45" fill="#132e65"></circle>
        <circle r="5" cx="1264.37" cy="409.92" fill="#132e65"></circle>
        <circle r="5" cx="1252.37" cy="509.17" fill="#132e65"></circle>
        <circle r="5" cx="1257.42" cy="703.82" fill="#132e65"></circle>
        <circle r="5" cx="1388.8" cy="-86.96" fill="#132e65"></circle>
        <circle r="5" cx="1444.33" cy="100.46" fill="#132e65"></circle>
        <circle r="5" cx="1398.45" cy="252.82" fill="#132e65"></circle>
        <circle r="5" cx="1413.42" cy="384.22" fill="#132e65"></circle>
        <circle r="5" cx="1433.81" cy="547.9" fill="#132e65"></circle>
        <circle r="5" cx="1443.71" cy="674.38" fill="#132e65"></circle>
        <circle r="5" cx="1541.5" cy="-63.69" fill="#132e65"></circle>
        <circle r="5" cx="1557.62" cy="105.96" fill="#132e65"></circle>
        <circle r="5" cx="1575.97" cy="245.55" fill="#132e65"></circle>
        <circle r="5" cx="1593.34" cy="399.45" fill="#132e65"></circle>
        <circle r="5" cx="1564.34" cy="505.96" fill="#132e65"></circle>
        <circle r="5" cx="1564.57" cy="647.53" fill="#132e65"></circle>
        <path d="M-80.11 704.22L-80.11 704.22" stroke="hsl(174.39999999999998, 100%, 38.2%)" stroke-width="1.5"></path>
        <path d="M-80.11 704.22L47.27 692.18" stroke="hsl(174.39999999999998, 100%, 38.2%)" stroke-width="1.5"></path>
        <path d="M-80.11 704.22L-109.5 520.37" stroke="hsl(174.39999999999998, 100%, 38.2%)" stroke-width="1.5"></path>
        <path d="M-80.11 704.22L86.37 522.07" stroke="hsl(174.39999999999998, 100%, 38.2%)" stroke-width="1.5"></path>
        <path d="M-80.11 704.22L195.62 526.82" stroke="hsl(174.39999999999998, 100%, 38.2%)" stroke-width="1.5"></path>
        <path d="M47.27 692.18L47.27 692.18" stroke="hsl(174.39999999999998, 100%, 38.2%)" stroke-width="1.5"></path>
        <path d="M47.27 692.18L86.37 522.07" stroke="hsl(174.39999999999998, 100%, 38.2%)" stroke-width="1.5"></path>
        <path d="M380.37 526.5L380.37 526.5" stroke="hsl(174.39999999999998, 100%, 38.2%)" stroke-width="1.5"></path>
        <path d="M380.37 526.5L512.66 546.88" stroke="hsl(174.39999999999998, 100%, 38.2%)" stroke-width="1.5"></path>
        <path d="M380.37 526.5L400.87 701.32" stroke="hsl(174.39999999999998, 100%, 38.2%)" stroke-width="1.5"></path>
        <path d="M380.37 526.5L195.62 526.82" stroke="hsl(174.39999999999998, 100%, 38.2%)" stroke-width="1.5"></path>
        <path d="M825.65 700.26L825.65 700.26" stroke="hsl(174.39999999999998, 100%, 38.2%)" stroke-width="1.5"></path>
        <path d="M825.65 700.26L940.24 667.79" stroke="hsl(174.39999999999998, 100%, 38.2%)" stroke-width="1.5"></path>
        <path d="M825.65 700.26L788.77 527.85" stroke="hsl(174.39999999999998, 100%, 38.2%)" stroke-width="1.5"></path>
        <path d="M1111.33 341.9L1111.33 341.9" stroke="hsl(174.39999999999998, 100%, 38.2%)" stroke-width="1.5"></path>
        <path d="M1111.33 341.9L1147.21 191.49" stroke="hsl(174.39999999999998, 100%, 38.2%)" stroke-width="1.5"></path>
        <path d="M1111.33 341.9L1097.14 498.01" stroke="hsl(174.39999999999998, 100%, 38.2%)" stroke-width="1.5"></path>
        <path d="M1111.33 341.9L944.94 382.44" stroke="hsl(174.39999999999998, 100%, 38.2%)" stroke-width="1.5"></path>
        <path d="M1283.26 374.37L1283.26 374.37" stroke="hsl(174.39999999999998, 100%, 38.2%)" stroke-width="1.5"></path>
        <path d="M1283.26 374.37L1391.37 372.42" stroke="hsl(174.39999999999998, 100%, 38.2%)" stroke-width="1.5"></path>
        <path d="M1283.26 374.37L1305.5 258.26" stroke="hsl(174.39999999999998, 100%, 38.2%)" stroke-width="1.5"></path>
        <path d="M1283.26 374.37L1111.33 341.9" stroke="hsl(174.39999999999998, 100%, 38.2%)" stroke-width="1.5"></path>
        <path d="M1283.26 374.37L1277.66 556.59" stroke="hsl(174.39999999999998, 100%, 38.2%)" stroke-width="1.5"></path>
        <path d="M1283.26 374.37L1422.35 492.82" stroke="hsl(174.39999999999998, 100%, 38.2%)" stroke-width="1.5"></path>
        <path d="M1426.25 -60.53L1426.25 -60.53" stroke="hsl(174.39999999999998, 100%, 38.2%)" stroke-width="1.5"></path>
        <path d="M1426.25 -60.53L1408.1 50.77" stroke="hsl(174.39999999999998, 100%, 38.2%)" stroke-width="1.5"></path>
        <path d="M1426.25 -60.53L1305.87 43.45" stroke="hsl(174.39999999999998, 100%, 38.2%)" stroke-width="1.5"></path>
        <path d="M1426.25 -60.53L1587.24 -111.92" stroke="hsl(174.39999999999998, 100%, 38.2%)" stroke-width="1.5"></path>
        <path d="M1426.25 -60.53L1238.23 -106.21" stroke="hsl(174.39999999999998, 100%, 38.2%)" stroke-width="1.5"></path>
        <path d="M1426.25 -60.53L1593.05 55.53" stroke="hsl(174.39999999999998, 100%, 38.2%)" stroke-width="1.5"></path>
        <path d="M1426.25 -60.53L1415.8 238.58" stroke="hsl(174.39999999999998, 100%, 38.2%)" stroke-width="1.5"></path>
        <path d="M1391.37 372.42L1391.37 372.42" stroke="hsl(174.39999999999998, 100%, 38.2%)" stroke-width="1.5"></path>
        <path d="M1391.37 372.42L1422.35 492.82" stroke="hsl(174.39999999999998, 100%, 38.2%)" stroke-width="1.5"></path>
        <path d="M1391.37 372.42L1415.8 238.58" stroke="hsl(174.39999999999998, 100%, 38.2%)" stroke-width="1.5"></path>
        <path d="M1391.37 372.42L1305.5 258.26" stroke="hsl(174.39999999999998, 100%, 38.2%)" stroke-width="1.5"></path>
        <path d="M1391.37 372.42L1544.74 355.71" stroke="hsl(174.39999999999998, 100%, 38.2%)" stroke-width="1.5"></path>
        <path d="M1391.37 372.42L1277.66 556.59" stroke="hsl(174.39999999999998, 100%, 38.2%)" stroke-width="1.5"></path>
        <path d="M1422.35 492.82L1422.35 492.82" stroke="hsl(174.39999999999998, 100%, 38.2%)" stroke-width="1.5"></path>
        <path d="M1422.35 492.82L1277.66 556.59" stroke="hsl(174.39999999999998, 100%, 38.2%)" stroke-width="1.5"></path>
        <path d="M1422.35 492.82L1544.74 355.71" stroke="hsl(174.39999999999998, 100%, 38.2%)" stroke-width="1.5"></path>
        <path d="M1422.35 492.82L1304.55 641.66" stroke="hsl(174.39999999999998, 100%, 38.2%)" stroke-width="1.5"></path>
        <path d="M1422.35 492.82L1457.1 699.22" stroke="hsl(174.39999999999998, 100%, 38.2%)" stroke-width="1.5"></path>
        <path d="M1593.05 55.53L1593.05 55.53" stroke="hsl(174.39999999999998, 100%, 38.2%)" stroke-width="1.5"></path>
        <path d="M1593.05 55.53L1583.28 209.97" stroke="hsl(174.39999999999998, 100%, 38.2%)" stroke-width="1.5"></path>
        <path d="M1593.05 55.53L1587.24 -111.92" stroke="hsl(174.39999999999998, 100%, 38.2%)" stroke-width="1.5"></path>
        <path d="M1593.05 55.53L1408.1 50.77" stroke="hsl(174.39999999999998, 100%, 38.2%)" stroke-width="1.5"></path>
        <path d="M1544.74 355.71L1544.74 355.71" stroke="hsl(174.39999999999998, 100%, 38.2%)" stroke-width="1.5"></path>
        <path d="M1544.74 355.71L1583.28 209.97" stroke="hsl(174.39999999999998, 100%, 38.2%)" stroke-width="1.5"></path>
        <path d="M-109.5 520.37L-109.5 520.37" stroke="hsl(174.39999999999998, 100%, 38.2%)" stroke-width="1.5"></path>
        <path d="M-109.5 520.37L86.37 522.07" stroke="hsl(174.39999999999998, 100%, 38.2%)" stroke-width="1.5"></path>
        <path d="M-109.5 520.37L47.27 692.18" stroke="hsl(174.39999999999998, 100%, 38.2%)" stroke-width="1.5"></path>
        <path d="M-109.5 520.37L195.62 526.82" stroke="hsl(174.39999999999998, 100%, 38.2%)" stroke-width="1.5"></path>
        <path d="M-109.5 520.37L254.83 707.49" stroke="hsl(174.39999999999998, 100%, 38.2%)" stroke-width="1.5"></path>
        <path d="M86.37 522.07L86.37 522.07" stroke="hsl(174.39999999999998, 100%, 38.2%)" stroke-width="1.5"></path>
        <path d="M86.37 522.07L195.62 526.82" stroke="hsl(174.39999999999998, 100%, 38.2%)" stroke-width="1.5"></path>
        <path d="M86.37 522.07L254.83 707.49" stroke="hsl(174.39999999999998, 100%, 38.2%)" stroke-width="1.5"></path>
        <path d="M195.62 526.82L195.62 526.82" stroke="hsl(174.39999999999998, 100%, 38.2%)" stroke-width="1.5"></path>
        <path d="M195.62 526.82L254.83 707.49" stroke="hsl(174.39999999999998, 100%, 38.2%)" stroke-width="1.5"></path>
        <path d="M195.62 526.82L47.27 692.18" stroke="hsl(174.39999999999998, 100%, 38.2%)" stroke-width="1.5"></path>
        <path d="M254.83 707.49L254.83 707.49" stroke="hsl(174.39999999999998, 100%, 38.2%)" stroke-width="1.5"></path>
        <path d="M254.83 707.49L400.87 701.32" stroke="hsl(174.39999999999998, 100%, 38.2%)" stroke-width="1.5"></path>
        <path d="M254.83 707.49L47.27 692.18" stroke="hsl(174.39999999999998, 100%, 38.2%)" stroke-width="1.5"></path>
        <path d="M400.87 701.32L400.87 701.32" stroke="hsl(174.39999999999998, 100%, 38.2%)" stroke-width="1.5"></path>
        <path d="M400.87 701.32L506.19 678.25" stroke="hsl(174.39999999999998, 100%, 38.2%)" stroke-width="1.5"></path>
        <path d="M400.87 701.32L512.66 546.88" stroke="hsl(174.39999999999998, 100%, 38.2%)" stroke-width="1.5"></path>
        <path d="M400.87 701.32L641.25 670.2" stroke="hsl(174.39999999999998, 100%, 38.2%)" stroke-width="1.5"></path>
        <path d="M400.87 701.32L195.62 526.82" stroke="hsl(174.39999999999998, 100%, 38.2%)" stroke-width="1.5"></path>
        <path d="M512.66 546.88L512.66 546.88" stroke="hsl(174.39999999999998, 100%, 38.2%)" stroke-width="1.5"></path>
        <path d="M512.66 546.88L506.19 678.25" stroke="hsl(174.39999999999998, 100%, 38.2%)" stroke-width="1.5"></path>
        <path d="M512.66 546.88L646.56 559.25" stroke="hsl(174.39999999999998, 100%, 38.2%)" stroke-width="1.5"></path>
        <path d="M512.66 546.88L641.25 670.2" stroke="hsl(174.39999999999998, 100%, 38.2%)" stroke-width="1.5"></path>
        <path d="M506.19 678.25L506.19 678.25" stroke="hsl(174.39999999999998, 100%, 38.2%)" stroke-width="1.5"></path>
        <path d="M506.19 678.25L641.25 670.2" stroke="hsl(174.39999999999998, 100%, 38.2%)" stroke-width="1.5"></path>
        <path d="M646.56 559.25L646.56 559.25" stroke="hsl(174.39999999999998, 100%, 38.2%)" stroke-width="1.5"></path>
        <path d="M646.56 559.25L641.25 670.2" stroke="hsl(174.39999999999998, 100%, 38.2%)" stroke-width="1.5"></path>
        <path d="M641.25 670.2L641.25 670.2" stroke="hsl(174.39999999999998, 100%, 38.2%)" stroke-width="1.5"></path>
        <path d="M641.25 670.2L825.65 700.26" stroke="hsl(174.39999999999998, 100%, 38.2%)" stroke-width="1.5"></path>
        <path d="M837.6 346.56L837.6 346.56" stroke="hsl(174.39999999999998, 100%, 38.2%)" stroke-width="1.5"></path>
        <path d="M837.6 346.56L944.94 382.44" stroke="hsl(174.39999999999998, 100%, 38.2%)" stroke-width="1.5"></path>
        <path d="M837.6 346.56L788.77 527.85" stroke="hsl(174.39999999999998, 100%, 38.2%)" stroke-width="1.5"></path>
        <path d="M837.6 346.56L971.41 544.47" stroke="hsl(174.39999999999998, 100%, 38.2%)" stroke-width="1.5"></path>
        <path d="M837.6 346.56L1111.33 341.9" stroke="hsl(174.39999999999998, 100%, 38.2%)" stroke-width="1.5"></path>
        <path d="M837.6 346.56L646.56 559.25" stroke="hsl(174.39999999999998, 100%, 38.2%)" stroke-width="1.5"></path>
        <path d="M788.77 527.85L788.77 527.85" stroke="hsl(174.39999999999998, 100%, 38.2%)" stroke-width="1.5"></path>
        <path d="M788.77 527.85L646.56 559.25" stroke="hsl(174.39999999999998, 100%, 38.2%)" stroke-width="1.5"></path>
        <path d="M788.77 527.85L971.41 544.47" stroke="hsl(174.39999999999998, 100%, 38.2%)" stroke-width="1.5"></path>
        <path d="M788.77 527.85L641.25 670.2" stroke="hsl(174.39999999999998, 100%, 38.2%)" stroke-width="1.5"></path>
        <path d="M944.94 382.44L944.94 382.44" stroke="hsl(174.39999999999998, 100%, 38.2%)" stroke-width="1.5"></path>
        <path d="M971.41 544.47L971.41 544.47" stroke="hsl(174.39999999999998, 100%, 38.2%)" stroke-width="1.5"></path>
        <path d="M971.41 544.47L940.24 667.79" stroke="hsl(174.39999999999998, 100%, 38.2%)" stroke-width="1.5"></path>
        <path d="M971.41 544.47L1097.14 498.01" stroke="hsl(174.39999999999998, 100%, 38.2%)" stroke-width="1.5"></path>
        <path d="M971.41 544.47L944.94 382.44" stroke="hsl(174.39999999999998, 100%, 38.2%)" stroke-width="1.5"></path>
        <path d="M940.24 667.79L940.24 667.79" stroke="hsl(174.39999999999998, 100%, 38.2%)" stroke-width="1.5"></path>
        <path d="M940.24 667.79L788.77 527.85" stroke="hsl(174.39999999999998, 100%, 38.2%)" stroke-width="1.5"></path>
        <path d="M940.24 667.79L1159.25 662.76" stroke="hsl(174.39999999999998, 100%, 38.2%)" stroke-width="1.5"></path>
        <path d="M1147.21 191.49L1147.21 191.49" stroke="hsl(174.39999999999998, 100%, 38.2%)" stroke-width="1.5"></path>
        <path d="M1147.21 191.49L1305.5 258.26" stroke="hsl(174.39999999999998, 100%, 38.2%)" stroke-width="1.5"></path>
        <path d="M1147.21 191.49L1305.87 43.45" stroke="hsl(174.39999999999998, 100%, 38.2%)" stroke-width="1.5"></path>
        <path d="M1097.14 498.01L1097.14 498.01" stroke="hsl(174.39999999999998, 100%, 38.2%)" stroke-width="1.5"></path>
        <path d="M1097.14 498.01L1159.25 662.76" stroke="hsl(174.39999999999998, 100%, 38.2%)" stroke-width="1.5"></path>
        <path d="M1159.25 662.76L1159.25 662.76" stroke="hsl(174.39999999999998, 100%, 38.2%)" stroke-width="1.5"></path>
        <path d="M1159.25 662.76L1304.55 641.66" stroke="hsl(174.39999999999998, 100%, 38.2%)" stroke-width="1.5"></path>
        <path d="M1159.25 662.76L1277.66 556.59" stroke="hsl(174.39999999999998, 100%, 38.2%)" stroke-width="1.5"></path>
        <path d="M1159.25 662.76L971.41 544.47" stroke="hsl(174.39999999999998, 100%, 38.2%)" stroke-width="1.5"></path>
        <path d="M1159.25 662.76L1457.1 699.22" stroke="hsl(174.39999999999998, 100%, 38.2%)" stroke-width="1.5"></path>
        <path d="M1238.23 -106.21L1238.23 -106.21" stroke="hsl(174.39999999999998, 100%, 38.2%)" stroke-width="1.5"></path>
        <path d="M1238.23 -106.21L1305.87 43.45" stroke="hsl(174.39999999999998, 100%, 38.2%)" stroke-width="1.5"></path>
        <path d="M1238.23 -106.21L1408.1 50.77" stroke="hsl(174.39999999999998, 100%, 38.2%)" stroke-width="1.5"></path>
        <path d="M1238.23 -106.21L1147.21 191.49" stroke="hsl(174.39999999999998, 100%, 38.2%)" stroke-width="1.5"></path>
        <path d="M1305.87 43.45L1305.87 43.45" stroke="hsl(174.39999999999998, 100%, 38.2%)" stroke-width="1.5"></path>
        <path d="M1305.87 43.45L1408.1 50.77" stroke="hsl(174.39999999999998, 100%, 38.2%)" stroke-width="1.5"></path>
        <path d="M1305.87 43.45L1305.5 258.26" stroke="hsl(174.39999999999998, 100%, 38.2%)" stroke-width="1.5"></path>
        <path d="M1305.5 258.26L1305.5 258.26" stroke="hsl(174.39999999999998, 100%, 38.2%)" stroke-width="1.5"></path>
        <path d="M1305.5 258.26L1415.8 238.58" stroke="hsl(174.39999999999998, 100%, 38.2%)" stroke-width="1.5"></path>
        <path d="M1305.5 258.26L1111.33 341.9" stroke="hsl(174.39999999999998, 100%, 38.2%)" stroke-width="1.5"></path>
        <path d="M1277.66 556.59L1277.66 556.59" stroke="hsl(174.39999999999998, 100%, 38.2%)" stroke-width="1.5"></path>
        <path d="M1277.66 556.59L1304.55 641.66" stroke="hsl(174.39999999999998, 100%, 38.2%)" stroke-width="1.5"></path>
        <path d="M1304.55 641.66L1304.55 641.66" stroke="hsl(174.39999999999998, 100%, 38.2%)" stroke-width="1.5"></path>
        <path d="M1304.55 641.66L1457.1 699.22" stroke="hsl(174.39999999999998, 100%, 38.2%)" stroke-width="1.5"></path>
        <path d="M1304.55 641.66L1097.14 498.01" stroke="hsl(174.39999999999998, 100%, 38.2%)" stroke-width="1.5"></path>
        <path d="M1408.1 50.77L1408.1 50.77" stroke="hsl(174.39999999999998, 100%, 38.2%)" stroke-width="1.5"></path>
        <path d="M1408.1 50.77L1415.8 238.58" stroke="hsl(174.39999999999998, 100%, 38.2%)" stroke-width="1.5"></path>
        <path d="M1415.8 238.58L1415.8 238.58" stroke="hsl(174.39999999999998, 100%, 38.2%)" stroke-width="1.5"></path>
        <path d="M1415.8 238.58L1583.28 209.97" stroke="hsl(174.39999999999998, 100%, 38.2%)" stroke-width="1.5"></path>
        <path d="M1415.8 238.58L1544.74 355.71" stroke="hsl(174.39999999999998, 100%, 38.2%)" stroke-width="1.5"></path>
        <path d="M1457.1 699.22L1457.1 699.22" stroke="hsl(174.39999999999998, 100%, 38.2%)" stroke-width="1.5"></path>
        <path d="M1457.1 699.22L1587.56 674.83" stroke="hsl(174.39999999999998, 100%, 38.2%)" stroke-width="1.5"></path>
        <path d="M1457.1 699.22L1277.66 556.59" stroke="hsl(174.39999999999998, 100%, 38.2%)" stroke-width="1.5"></path>
        <path d="M1587.24 -111.92L1587.24 -111.92" stroke="hsl(174.39999999999998, 100%, 38.2%)" stroke-width="1.5"></path>
        <path d="M1587.24 -111.92L1408.1 50.77" stroke="hsl(174.39999999999998, 100%, 38.2%)" stroke-width="1.5"></path>
        <path d="M1587.24 -111.92L1305.87 43.45" stroke="hsl(174.39999999999998, 100%, 38.2%)" stroke-width="1.5"></path>
        <path d="M1587.24 -111.92L1583.28 209.97" stroke="hsl(174.39999999999998, 100%, 38.2%)" stroke-width="1.5"></path>
        <path d="M1587.24 -111.92L1238.23 -106.21" stroke="hsl(174.39999999999998, 100%, 38.2%)" stroke-width="1.5"></path>
        <path d="M1583.28 209.97L1583.28 209.97" stroke="hsl(174.39999999999998, 100%, 38.2%)" stroke-width="1.5"></path>
        <path d="M1587.56 674.83L1587.56 674.83" stroke="hsl(174.39999999999998, 100%, 38.2%)" stroke-width="1.5"></path>
        <path d="M1587.56 674.83L1422.35 492.82" stroke="hsl(174.39999999999998, 100%, 38.2%)" stroke-width="1.5"></path>
        <circle r="25" cx="-80.11" cy="704.22" fill="url(&quot;#SvgjsRadialGradient1008&quot;)"></circle>
        <circle r="25" cx="47.27" cy="692.18" fill="url(&quot;#SvgjsRadialGradient1008&quot;)"></circle>
        <circle r="25" cx="380.37" cy="526.5" fill="url(&quot;#SvgjsRadialGradient1008&quot;)"></circle>
        <circle r="25" cx="825.65" cy="700.26" fill="url(&quot;#SvgjsRadialGradient1008&quot;)"></circle>
        <circle r="25" cx="1111.33" cy="341.9" fill="url(&quot;#SvgjsRadialGradient1008&quot;)"></circle>
        <circle r="25" cx="1283.26" cy="374.37" fill="url(&quot;#SvgjsRadialGradient1008&quot;)"></circle>
        <circle r="25" cx="1426.25" cy="-60.53" fill="url(&quot;#SvgjsRadialGradient1008&quot;)"></circle>
        <circle r="25" cx="1391.37" cy="372.42" fill="url(&quot;#SvgjsRadialGradient1008&quot;)"></circle>
        <circle r="25" cx="1422.35" cy="492.82" fill="url(&quot;#SvgjsRadialGradient1008&quot;)"></circle>
        <circle r="25" cx="1593.05" cy="55.53" fill="url(&quot;#SvgjsRadialGradient1008&quot;)"></circle>
        <circle r="25" cx="1544.74" cy="355.71" fill="url(&quot;#SvgjsRadialGradient1008&quot;)"></circle>
        <circle r="5" cx="-109.5" cy="520.37" fill="#80cbc4"></circle>
        <circle r="5" cx="86.37" cy="522.07" fill="#80cbc4"></circle>
        <circle r="5" cx="195.62" cy="526.82" fill="#80cbc4"></circle>
        <circle r="5" cx="254.83" cy="707.49" fill="#80cbc4"></circle>
        <circle r="5" cx="400.87" cy="701.32" fill="#80cbc4"></circle>
        <circle r="5" cx="512.66" cy="546.88" fill="#80cbc4"></circle>
        <circle r="5" cx="506.19" cy="678.25" fill="#80cbc4"></circle>
        <circle r="5" cx="646.56" cy="559.25" fill="#80cbc4"></circle>
        <circle r="5" cx="641.25" cy="670.2" fill="#80cbc4"></circle>
        <circle r="5" cx="837.6" cy="346.56" fill="#80cbc4"></circle>
        <circle r="5" cx="788.77" cy="527.85" fill="#80cbc4"></circle>
        <circle r="5" cx="944.94" cy="382.44" fill="#80cbc4"></circle>
        <circle r="5" cx="971.41" cy="544.47" fill="#80cbc4"></circle>
        <circle r="5" cx="940.24" cy="667.79" fill="#80cbc4"></circle>
        <circle r="5" cx="1147.21" cy="191.49" fill="#80cbc4"></circle>
        <circle r="5" cx="1097.14" cy="498.01" fill="#80cbc4"></circle>
        <circle r="5" cx="1159.25" cy="662.76" fill="#80cbc4"></circle>
        <circle r="5" cx="1238.23" cy="-106.21" fill="#80cbc4"></circle>
        <circle r="5" cx="1305.87" cy="43.45" fill="#80cbc4"></circle>
        <circle r="5" cx="1305.5" cy="258.26" fill="#80cbc4"></circle>
        <circle r="5" cx="1277.66" cy="556.59" fill="#80cbc4"></circle>
        <circle r="5" cx="1304.55" cy="641.66" fill="#80cbc4"></circle>
        <circle r="5" cx="1408.1" cy="50.77" fill="#80cbc4"></circle>
        <circle r="5" cx="1415.8" cy="238.58" fill="#80cbc4"></circle>
        <circle r="5" cx="1457.1" cy="699.22" fill="#80cbc4"></circle>
        <circle r="5" cx="1587.24" cy="-111.92" fill="#80cbc4"></circle>
        <circle r="5" cx="1583.28" cy="209.97" fill="#80cbc4"></circle>
        <circle r="5" cx="1587.56" cy="674.83" fill="#80cbc4"></circle>
    </g>
    <defs>
        <mask id="SvgjsMask1006">
            <rect width="1440" height="560" fill="#ffffff"></rect>
        </mask>
        <linearGradient x1="15.28%" y1="-39.29%" x2="84.72%" y2="139.29%" gradientUnits="userSpaceOnUse" id="SvgjsLinearGradient1007">
            <stop stop-color="#0e2a47" offset="0"></stop>
            <stop stop-color="#00459e" offset="1"></stop>
        </linearGradient>
        <radialGradient id="SvgjsRadialGradient1008">
            <stop stop-color="#ffffff" offset="0.1"></stop>
            <stop stop-color="rgba(0, 150, 136, 1)" offset="0.2"></stop>
            <stop stop-color="rgba(0, 150, 136, 0)" offset="1"></stop>
        </radialGradient>
    </defs>
</svg>
